<?xml version="1.0" encoding="utf-8" standalone="no"?>
<!DOCTYPE svg PUBLIC "-//W3C//DTD SVG 1.1//EN"
  "http://www.w3.org/Graphics/SVG/1.1/DTD/svg11.dtd">
<svg xmlns:xlink="http://www.w3.org/1999/xlink" width="991.178125pt" height="684.290625pt" viewBox="0 0 991.178125 684.290625" xmlns="http://www.w3.org/2000/svg" version="1.1">
 <metadata>
  <rdf:RDF xmlns:dc="http://purl.org/dc/elements/1.1/" xmlns:cc="http://creativecommons.org/ns#" xmlns:rdf="http://www.w3.org/1999/02/22-rdf-syntax-ns#">
   <cc:Work>
    <dc:type rdf:resource="http://purl.org/dc/dcmitype/StillImage"/>
    <dc:date>2022-08-11T15:11:09.060764</dc:date>
    <dc:format>image/svg+xml</dc:format>
    <dc:creator>
     <cc:Agent>
      <dc:title>Matplotlib v3.5.1, https://matplotlib.org/</dc:title>
     </cc:Agent>
    </dc:creator>
   </cc:Work>
  </rdf:RDF>
 </metadata>
 <defs>
  <style type="text/css">*{stroke-linejoin: round; stroke-linecap: butt}</style>
 </defs>
 <g id="figure_1">
  <g id="patch_1">
   <path d="M 0 684.290625 
L 991.178125 684.290625 
L 991.178125 0 
L 0 0 
z
" style="fill: #ffffff"/>
  </g>
  <g id="axes_1">
   <g id="patch_2">
    <path d="M 83.978125 620.639062 
L 976.778125 620.639062 
L 976.778125 66.239062 
L 83.978125 66.239062 
z
" style="fill: #eaeaf2"/>
   </g>
   <g id="matplotlib.axis_1">
    <g id="xtick_1">
     <g id="line2d_1">
      <path d="M 124.559943 620.639062 
L 124.559943 66.239062 
" clip-path="url(#pf8226159f1)" style="fill: none; stroke: #ffffff; stroke-width: 0.8; stroke-linecap: round"/>
     </g>
     <g id="line2d_2"/>
     <g id="text_1">
      <!-- 0.0 -->
      <g style="fill: #262626" transform="translate(110.659943 638.454687)scale(0.2 -0.2)">
       <defs>
        <path id="ArialMT-30" d="M 266 2259 
Q 266 3072 433 3567 
Q 600 4063 929 4331 
Q 1259 4600 1759 4600 
Q 2128 4600 2406 4451 
Q 2684 4303 2865 4023 
Q 3047 3744 3150 3342 
Q 3253 2941 3253 2259 
Q 3253 1453 3087 958 
Q 2922 463 2592 192 
Q 2263 -78 1759 -78 
Q 1097 -78 719 397 
Q 266 969 266 2259 
z
M 844 2259 
Q 844 1131 1108 757 
Q 1372 384 1759 384 
Q 2147 384 2411 759 
Q 2675 1134 2675 2259 
Q 2675 3391 2411 3762 
Q 2147 4134 1753 4134 
Q 1366 4134 1134 3806 
Q 844 3388 844 2259 
z
" transform="scale(0.015625)"/>
        <path id="ArialMT-2e" d="M 581 0 
L 581 641 
L 1222 641 
L 1222 0 
L 581 0 
z
" transform="scale(0.015625)"/>
       </defs>
       <use xlink:href="#ArialMT-30"/>
       <use xlink:href="#ArialMT-2e" x="55.615234"/>
       <use xlink:href="#ArialMT-30" x="83.398438"/>
      </g>
     </g>
    </g>
    <g id="xtick_2">
     <g id="line2d_3">
      <path d="M 286.887216 620.639062 
L 286.887216 66.239062 
" clip-path="url(#pf8226159f1)" style="fill: none; stroke: #ffffff; stroke-width: 0.8; stroke-linecap: round"/>
     </g>
     <g id="line2d_4"/>
     <g id="text_2">
      <!-- 0.2 -->
      <g style="fill: #262626" transform="translate(272.987216 638.454687)scale(0.2 -0.2)">
       <defs>
        <path id="ArialMT-32" d="M 3222 541 
L 3222 0 
L 194 0 
Q 188 203 259 391 
Q 375 700 629 1000 
Q 884 1300 1366 1694 
Q 2113 2306 2375 2664 
Q 2638 3022 2638 3341 
Q 2638 3675 2398 3904 
Q 2159 4134 1775 4134 
Q 1369 4134 1125 3890 
Q 881 3647 878 3216 
L 300 3275 
Q 359 3922 746 4261 
Q 1134 4600 1788 4600 
Q 2447 4600 2831 4234 
Q 3216 3869 3216 3328 
Q 3216 3053 3103 2787 
Q 2991 2522 2730 2228 
Q 2469 1934 1863 1422 
Q 1356 997 1212 845 
Q 1069 694 975 541 
L 3222 541 
z
" transform="scale(0.015625)"/>
       </defs>
       <use xlink:href="#ArialMT-30"/>
       <use xlink:href="#ArialMT-2e" x="55.615234"/>
       <use xlink:href="#ArialMT-32" x="83.398438"/>
      </g>
     </g>
    </g>
    <g id="xtick_3">
     <g id="line2d_5">
      <path d="M 449.214489 620.639062 
L 449.214489 66.239062 
" clip-path="url(#pf8226159f1)" style="fill: none; stroke: #ffffff; stroke-width: 0.8; stroke-linecap: round"/>
     </g>
     <g id="line2d_6"/>
     <g id="text_3">
      <!-- 0.4 -->
      <g style="fill: #262626" transform="translate(435.314489 638.454687)scale(0.2 -0.2)">
       <defs>
        <path id="ArialMT-34" d="M 2069 0 
L 2069 1097 
L 81 1097 
L 81 1613 
L 2172 4581 
L 2631 4581 
L 2631 1613 
L 3250 1613 
L 3250 1097 
L 2631 1097 
L 2631 0 
L 2069 0 
z
M 2069 1613 
L 2069 3678 
L 634 1613 
L 2069 1613 
z
" transform="scale(0.015625)"/>
       </defs>
       <use xlink:href="#ArialMT-30"/>
       <use xlink:href="#ArialMT-2e" x="55.615234"/>
       <use xlink:href="#ArialMT-34" x="83.398438"/>
      </g>
     </g>
    </g>
    <g id="xtick_4">
     <g id="line2d_7">
      <path d="M 611.541761 620.639062 
L 611.541761 66.239062 
" clip-path="url(#pf8226159f1)" style="fill: none; stroke: #ffffff; stroke-width: 0.8; stroke-linecap: round"/>
     </g>
     <g id="line2d_8"/>
     <g id="text_4">
      <!-- 0.6 -->
      <g style="fill: #262626" transform="translate(597.641761 638.454687)scale(0.2 -0.2)">
       <defs>
        <path id="ArialMT-36" d="M 3184 3459 
L 2625 3416 
Q 2550 3747 2413 3897 
Q 2184 4138 1850 4138 
Q 1581 4138 1378 3988 
Q 1113 3794 959 3422 
Q 806 3050 800 2363 
Q 1003 2672 1297 2822 
Q 1591 2972 1913 2972 
Q 2475 2972 2870 2558 
Q 3266 2144 3266 1488 
Q 3266 1056 3080 686 
Q 2894 316 2569 119 
Q 2244 -78 1831 -78 
Q 1128 -78 684 439 
Q 241 956 241 2144 
Q 241 3472 731 4075 
Q 1159 4600 1884 4600 
Q 2425 4600 2770 4297 
Q 3116 3994 3184 3459 
z
M 888 1484 
Q 888 1194 1011 928 
Q 1134 663 1356 523 
Q 1578 384 1822 384 
Q 2178 384 2434 671 
Q 2691 959 2691 1453 
Q 2691 1928 2437 2201 
Q 2184 2475 1800 2475 
Q 1419 2475 1153 2201 
Q 888 1928 888 1484 
z
" transform="scale(0.015625)"/>
       </defs>
       <use xlink:href="#ArialMT-30"/>
       <use xlink:href="#ArialMT-2e" x="55.615234"/>
       <use xlink:href="#ArialMT-36" x="83.398438"/>
      </g>
     </g>
    </g>
    <g id="xtick_5">
     <g id="line2d_9">
      <path d="M 773.869034 620.639062 
L 773.869034 66.239062 
" clip-path="url(#pf8226159f1)" style="fill: none; stroke: #ffffff; stroke-width: 0.8; stroke-linecap: round"/>
     </g>
     <g id="line2d_10"/>
     <g id="text_5">
      <!-- 0.8 -->
      <g style="fill: #262626" transform="translate(759.969034 638.454687)scale(0.2 -0.2)">
       <defs>
        <path id="ArialMT-38" d="M 1131 2484 
Q 781 2613 612 2850 
Q 444 3088 444 3419 
Q 444 3919 803 4259 
Q 1163 4600 1759 4600 
Q 2359 4600 2725 4251 
Q 3091 3903 3091 3403 
Q 3091 3084 2923 2848 
Q 2756 2613 2416 2484 
Q 2838 2347 3058 2040 
Q 3278 1734 3278 1309 
Q 3278 722 2862 322 
Q 2447 -78 1769 -78 
Q 1091 -78 675 323 
Q 259 725 259 1325 
Q 259 1772 486 2073 
Q 713 2375 1131 2484 
z
M 1019 3438 
Q 1019 3113 1228 2906 
Q 1438 2700 1772 2700 
Q 2097 2700 2305 2904 
Q 2513 3109 2513 3406 
Q 2513 3716 2298 3927 
Q 2084 4138 1766 4138 
Q 1444 4138 1231 3931 
Q 1019 3725 1019 3438 
z
M 838 1322 
Q 838 1081 952 856 
Q 1066 631 1291 507 
Q 1516 384 1775 384 
Q 2178 384 2440 643 
Q 2703 903 2703 1303 
Q 2703 1709 2433 1975 
Q 2163 2241 1756 2241 
Q 1359 2241 1098 1978 
Q 838 1716 838 1322 
z
" transform="scale(0.015625)"/>
       </defs>
       <use xlink:href="#ArialMT-30"/>
       <use xlink:href="#ArialMT-2e" x="55.615234"/>
       <use xlink:href="#ArialMT-38" x="83.398438"/>
      </g>
     </g>
    </g>
    <g id="xtick_6">
     <g id="line2d_11">
      <path d="M 936.196307 620.639062 
L 936.196307 66.239062 
" clip-path="url(#pf8226159f1)" style="fill: none; stroke: #ffffff; stroke-width: 0.8; stroke-linecap: round"/>
     </g>
     <g id="line2d_12"/>
     <g id="text_6">
      <!-- 1.0 -->
      <g style="fill: #262626" transform="translate(922.296307 638.454687)scale(0.2 -0.2)">
       <defs>
        <path id="ArialMT-31" d="M 2384 0 
L 1822 0 
L 1822 3584 
Q 1619 3391 1289 3197 
Q 959 3003 697 2906 
L 697 3450 
Q 1169 3672 1522 3987 
Q 1875 4303 2022 4600 
L 2384 4600 
L 2384 0 
z
" transform="scale(0.015625)"/>
       </defs>
       <use xlink:href="#ArialMT-31"/>
       <use xlink:href="#ArialMT-2e" x="55.615234"/>
       <use xlink:href="#ArialMT-30" x="83.398438"/>
      </g>
     </g>
    </g>
    <g id="text_7">
     <!-- Structural Similarity -->
     <g style="fill: #262626" transform="translate(422.721875 664.628906)scale(0.25 -0.25)">
      <defs>
       <path id="ArialMT-53" d="M 288 1472 
L 859 1522 
Q 900 1178 1048 958 
Q 1197 738 1509 602 
Q 1822 466 2213 466 
Q 2559 466 2825 569 
Q 3091 672 3220 851 
Q 3350 1031 3350 1244 
Q 3350 1459 3225 1620 
Q 3100 1781 2813 1891 
Q 2628 1963 1997 2114 
Q 1366 2266 1113 2400 
Q 784 2572 623 2826 
Q 463 3081 463 3397 
Q 463 3744 659 4045 
Q 856 4347 1234 4503 
Q 1613 4659 2075 4659 
Q 2584 4659 2973 4495 
Q 3363 4331 3572 4012 
Q 3781 3694 3797 3291 
L 3216 3247 
Q 3169 3681 2898 3903 
Q 2628 4125 2100 4125 
Q 1550 4125 1298 3923 
Q 1047 3722 1047 3438 
Q 1047 3191 1225 3031 
Q 1400 2872 2139 2705 
Q 2878 2538 3153 2413 
Q 3553 2228 3743 1945 
Q 3934 1663 3934 1294 
Q 3934 928 3725 604 
Q 3516 281 3123 101 
Q 2731 -78 2241 -78 
Q 1619 -78 1198 103 
Q 778 284 539 648 
Q 300 1013 288 1472 
z
" transform="scale(0.015625)"/>
       <path id="ArialMT-74" d="M 1650 503 
L 1731 6 
Q 1494 -44 1306 -44 
Q 1000 -44 831 53 
Q 663 150 594 308 
Q 525 466 525 972 
L 525 2881 
L 113 2881 
L 113 3319 
L 525 3319 
L 525 4141 
L 1084 4478 
L 1084 3319 
L 1650 3319 
L 1650 2881 
L 1084 2881 
L 1084 941 
Q 1084 700 1114 631 
Q 1144 563 1211 522 
Q 1278 481 1403 481 
Q 1497 481 1650 503 
z
" transform="scale(0.015625)"/>
       <path id="ArialMT-72" d="M 416 0 
L 416 3319 
L 922 3319 
L 922 2816 
Q 1116 3169 1280 3281 
Q 1444 3394 1641 3394 
Q 1925 3394 2219 3213 
L 2025 2691 
Q 1819 2813 1613 2813 
Q 1428 2813 1281 2702 
Q 1134 2591 1072 2394 
Q 978 2094 978 1738 
L 978 0 
L 416 0 
z
" transform="scale(0.015625)"/>
       <path id="ArialMT-75" d="M 2597 0 
L 2597 488 
Q 2209 -75 1544 -75 
Q 1250 -75 995 37 
Q 741 150 617 320 
Q 494 491 444 738 
Q 409 903 409 1263 
L 409 3319 
L 972 3319 
L 972 1478 
Q 972 1038 1006 884 
Q 1059 663 1231 536 
Q 1403 409 1656 409 
Q 1909 409 2131 539 
Q 2353 669 2445 892 
Q 2538 1116 2538 1541 
L 2538 3319 
L 3100 3319 
L 3100 0 
L 2597 0 
z
" transform="scale(0.015625)"/>
       <path id="ArialMT-63" d="M 2588 1216 
L 3141 1144 
Q 3050 572 2676 248 
Q 2303 -75 1759 -75 
Q 1078 -75 664 370 
Q 250 816 250 1647 
Q 250 2184 428 2587 
Q 606 2991 970 3192 
Q 1334 3394 1763 3394 
Q 2303 3394 2647 3120 
Q 2991 2847 3088 2344 
L 2541 2259 
Q 2463 2594 2264 2762 
Q 2066 2931 1784 2931 
Q 1359 2931 1093 2626 
Q 828 2322 828 1663 
Q 828 994 1084 691 
Q 1341 388 1753 388 
Q 2084 388 2306 591 
Q 2528 794 2588 1216 
z
" transform="scale(0.015625)"/>
       <path id="ArialMT-61" d="M 2588 409 
Q 2275 144 1986 34 
Q 1697 -75 1366 -75 
Q 819 -75 525 192 
Q 231 459 231 875 
Q 231 1119 342 1320 
Q 453 1522 633 1644 
Q 813 1766 1038 1828 
Q 1203 1872 1538 1913 
Q 2219 1994 2541 2106 
Q 2544 2222 2544 2253 
Q 2544 2597 2384 2738 
Q 2169 2928 1744 2928 
Q 1347 2928 1158 2789 
Q 969 2650 878 2297 
L 328 2372 
Q 403 2725 575 2942 
Q 747 3159 1072 3276 
Q 1397 3394 1825 3394 
Q 2250 3394 2515 3294 
Q 2781 3194 2906 3042 
Q 3031 2891 3081 2659 
Q 3109 2516 3109 2141 
L 3109 1391 
Q 3109 606 3145 398 
Q 3181 191 3288 0 
L 2700 0 
Q 2613 175 2588 409 
z
M 2541 1666 
Q 2234 1541 1622 1453 
Q 1275 1403 1131 1340 
Q 988 1278 909 1158 
Q 831 1038 831 891 
Q 831 666 1001 516 
Q 1172 366 1500 366 
Q 1825 366 2078 508 
Q 2331 650 2450 897 
Q 2541 1088 2541 1459 
L 2541 1666 
z
" transform="scale(0.015625)"/>
       <path id="ArialMT-6c" d="M 409 0 
L 409 4581 
L 972 4581 
L 972 0 
L 409 0 
z
" transform="scale(0.015625)"/>
       <path id="ArialMT-20" transform="scale(0.015625)"/>
       <path id="ArialMT-69" d="M 425 3934 
L 425 4581 
L 988 4581 
L 988 3934 
L 425 3934 
z
M 425 0 
L 425 3319 
L 988 3319 
L 988 0 
L 425 0 
z
" transform="scale(0.015625)"/>
       <path id="ArialMT-6d" d="M 422 0 
L 422 3319 
L 925 3319 
L 925 2853 
Q 1081 3097 1340 3245 
Q 1600 3394 1931 3394 
Q 2300 3394 2536 3241 
Q 2772 3088 2869 2813 
Q 3263 3394 3894 3394 
Q 4388 3394 4653 3120 
Q 4919 2847 4919 2278 
L 4919 0 
L 4359 0 
L 4359 2091 
Q 4359 2428 4304 2576 
Q 4250 2725 4106 2815 
Q 3963 2906 3769 2906 
Q 3419 2906 3187 2673 
Q 2956 2441 2956 1928 
L 2956 0 
L 2394 0 
L 2394 2156 
Q 2394 2531 2256 2718 
Q 2119 2906 1806 2906 
Q 1569 2906 1367 2781 
Q 1166 2656 1075 2415 
Q 984 2175 984 1722 
L 984 0 
L 422 0 
z
" transform="scale(0.015625)"/>
       <path id="ArialMT-79" d="M 397 -1278 
L 334 -750 
Q 519 -800 656 -800 
Q 844 -800 956 -737 
Q 1069 -675 1141 -563 
Q 1194 -478 1313 -144 
Q 1328 -97 1363 -6 
L 103 3319 
L 709 3319 
L 1400 1397 
Q 1534 1031 1641 628 
Q 1738 1016 1872 1384 
L 2581 3319 
L 3144 3319 
L 1881 -56 
Q 1678 -603 1566 -809 
Q 1416 -1088 1222 -1217 
Q 1028 -1347 759 -1347 
Q 597 -1347 397 -1278 
z
" transform="scale(0.015625)"/>
      </defs>
      <use xlink:href="#ArialMT-53"/>
      <use xlink:href="#ArialMT-74" x="66.699219"/>
      <use xlink:href="#ArialMT-72" x="94.482422"/>
      <use xlink:href="#ArialMT-75" x="127.783203"/>
      <use xlink:href="#ArialMT-63" x="183.398438"/>
      <use xlink:href="#ArialMT-74" x="233.398438"/>
      <use xlink:href="#ArialMT-75" x="261.181641"/>
      <use xlink:href="#ArialMT-72" x="316.796875"/>
      <use xlink:href="#ArialMT-61" x="350.097656"/>
      <use xlink:href="#ArialMT-6c" x="405.712891"/>
      <use xlink:href="#ArialMT-20" x="427.929688"/>
      <use xlink:href="#ArialMT-53" x="455.712891"/>
      <use xlink:href="#ArialMT-69" x="522.412109"/>
      <use xlink:href="#ArialMT-6d" x="544.628906"/>
      <use xlink:href="#ArialMT-69" x="627.929688"/>
      <use xlink:href="#ArialMT-6c" x="650.146484"/>
      <use xlink:href="#ArialMT-61" x="672.363281"/>
      <use xlink:href="#ArialMT-72" x="727.978516"/>
      <use xlink:href="#ArialMT-69" x="761.279297"/>
      <use xlink:href="#ArialMT-74" x="783.496094"/>
      <use xlink:href="#ArialMT-79" x="811.279297"/>
     </g>
    </g>
   </g>
   <g id="matplotlib.axis_2">
    <g id="ytick_1">
     <g id="line2d_13">
      <path d="M 83.978125 620.639062 
L 976.778125 620.639062 
" clip-path="url(#pf8226159f1)" style="fill: none; stroke: #ffffff; stroke-width: 0.8; stroke-linecap: round"/>
     </g>
     <g id="line2d_14"/>
     <g id="text_8">
      <!-- 0.00 -->
      <g style="fill: #262626" transform="translate(41.55625 627.796875)scale(0.2 -0.2)">
       <use xlink:href="#ArialMT-30"/>
       <use xlink:href="#ArialMT-2e" x="55.615234"/>
       <use xlink:href="#ArialMT-30" x="83.398438"/>
       <use xlink:href="#ArialMT-30" x="139.013672"/>
      </g>
     </g>
    </g>
    <g id="ytick_2">
     <g id="line2d_15">
      <path d="M 83.978125 543.639062 
L 976.778125 543.639062 
" clip-path="url(#pf8226159f1)" style="fill: none; stroke: #ffffff; stroke-width: 0.8; stroke-linecap: round"/>
     </g>
     <g id="line2d_16"/>
     <g id="text_9">
      <!-- 0.25 -->
      <g style="fill: #262626" transform="translate(41.55625 550.796875)scale(0.2 -0.2)">
       <defs>
        <path id="ArialMT-35" d="M 266 1200 
L 856 1250 
Q 922 819 1161 601 
Q 1400 384 1738 384 
Q 2144 384 2425 690 
Q 2706 997 2706 1503 
Q 2706 1984 2436 2262 
Q 2166 2541 1728 2541 
Q 1456 2541 1237 2417 
Q 1019 2294 894 2097 
L 366 2166 
L 809 4519 
L 3088 4519 
L 3088 3981 
L 1259 3981 
L 1013 2750 
Q 1425 3038 1878 3038 
Q 2478 3038 2890 2622 
Q 3303 2206 3303 1553 
Q 3303 931 2941 478 
Q 2500 -78 1738 -78 
Q 1113 -78 717 272 
Q 322 622 266 1200 
z
" transform="scale(0.015625)"/>
       </defs>
       <use xlink:href="#ArialMT-30"/>
       <use xlink:href="#ArialMT-2e" x="55.615234"/>
       <use xlink:href="#ArialMT-32" x="83.398438"/>
       <use xlink:href="#ArialMT-35" x="139.013672"/>
      </g>
     </g>
    </g>
    <g id="ytick_3">
     <g id="line2d_17">
      <path d="M 83.978125 466.639062 
L 976.778125 466.639062 
" clip-path="url(#pf8226159f1)" style="fill: none; stroke: #ffffff; stroke-width: 0.8; stroke-linecap: round"/>
     </g>
     <g id="line2d_18"/>
     <g id="text_10">
      <!-- 0.50 -->
      <g style="fill: #262626" transform="translate(41.55625 473.796875)scale(0.2 -0.2)">
       <use xlink:href="#ArialMT-30"/>
       <use xlink:href="#ArialMT-2e" x="55.615234"/>
       <use xlink:href="#ArialMT-35" x="83.398438"/>
       <use xlink:href="#ArialMT-30" x="139.013672"/>
      </g>
     </g>
    </g>
    <g id="ytick_4">
     <g id="line2d_19">
      <path d="M 83.978125 389.639062 
L 976.778125 389.639062 
" clip-path="url(#pf8226159f1)" style="fill: none; stroke: #ffffff; stroke-width: 0.8; stroke-linecap: round"/>
     </g>
     <g id="line2d_20"/>
     <g id="text_11">
      <!-- 0.75 -->
      <g style="fill: #262626" transform="translate(41.55625 396.796875)scale(0.2 -0.2)">
       <defs>
        <path id="ArialMT-37" d="M 303 3981 
L 303 4522 
L 3269 4522 
L 3269 4084 
Q 2831 3619 2401 2847 
Q 1972 2075 1738 1259 
Q 1569 684 1522 0 
L 944 0 
Q 953 541 1156 1306 
Q 1359 2072 1739 2783 
Q 2119 3494 2547 3981 
L 303 3981 
z
" transform="scale(0.015625)"/>
       </defs>
       <use xlink:href="#ArialMT-30"/>
       <use xlink:href="#ArialMT-2e" x="55.615234"/>
       <use xlink:href="#ArialMT-37" x="83.398438"/>
       <use xlink:href="#ArialMT-35" x="139.013672"/>
      </g>
     </g>
    </g>
    <g id="ytick_5">
     <g id="line2d_21">
      <path d="M 83.978125 312.639062 
L 976.778125 312.639062 
" clip-path="url(#pf8226159f1)" style="fill: none; stroke: #ffffff; stroke-width: 0.8; stroke-linecap: round"/>
     </g>
     <g id="line2d_22"/>
     <g id="text_12">
      <!-- 1.00 -->
      <g style="fill: #262626" transform="translate(41.55625 319.796875)scale(0.2 -0.2)">
       <use xlink:href="#ArialMT-31"/>
       <use xlink:href="#ArialMT-2e" x="55.615234"/>
       <use xlink:href="#ArialMT-30" x="83.398438"/>
       <use xlink:href="#ArialMT-30" x="139.013672"/>
      </g>
     </g>
    </g>
    <g id="ytick_6">
     <g id="line2d_23">
      <path d="M 83.978125 235.639062 
L 976.778125 235.639062 
" clip-path="url(#pf8226159f1)" style="fill: none; stroke: #ffffff; stroke-width: 0.8; stroke-linecap: round"/>
     </g>
     <g id="line2d_24"/>
     <g id="text_13">
      <!-- 1.25 -->
      <g style="fill: #262626" transform="translate(41.55625 242.796875)scale(0.2 -0.2)">
       <use xlink:href="#ArialMT-31"/>
       <use xlink:href="#ArialMT-2e" x="55.615234"/>
       <use xlink:href="#ArialMT-32" x="83.398438"/>
       <use xlink:href="#ArialMT-35" x="139.013672"/>
      </g>
     </g>
    </g>
    <g id="ytick_7">
     <g id="line2d_25">
      <path d="M 83.978125 158.639062 
L 976.778125 158.639062 
" clip-path="url(#pf8226159f1)" style="fill: none; stroke: #ffffff; stroke-width: 0.8; stroke-linecap: round"/>
     </g>
     <g id="line2d_26"/>
     <g id="text_14">
      <!-- 1.50 -->
      <g style="fill: #262626" transform="translate(41.55625 165.796875)scale(0.2 -0.2)">
       <use xlink:href="#ArialMT-31"/>
       <use xlink:href="#ArialMT-2e" x="55.615234"/>
       <use xlink:href="#ArialMT-35" x="83.398438"/>
       <use xlink:href="#ArialMT-30" x="139.013672"/>
      </g>
     </g>
    </g>
    <g id="ytick_8">
     <g id="line2d_27">
      <path d="M 83.978125 81.639062 
L 976.778125 81.639062 
" clip-path="url(#pf8226159f1)" style="fill: none; stroke: #ffffff; stroke-width: 0.8; stroke-linecap: round"/>
     </g>
     <g id="line2d_28"/>
     <g id="text_15">
      <!-- 1.75 -->
      <g style="fill: #262626" transform="translate(41.55625 88.796875)scale(0.2 -0.2)">
       <use xlink:href="#ArialMT-31"/>
       <use xlink:href="#ArialMT-2e" x="55.615234"/>
       <use xlink:href="#ArialMT-37" x="83.398438"/>
       <use xlink:href="#ArialMT-35" x="139.013672"/>
      </g>
     </g>
    </g>
    <g id="text_16">
     <!-- Density -->
     <g style="fill: #262626" transform="translate(32.294531 385.11875)rotate(-90)scale(0.25 -0.25)">
      <defs>
       <path id="ArialMT-44" d="M 494 0 
L 494 4581 
L 2072 4581 
Q 2606 4581 2888 4516 
Q 3281 4425 3559 4188 
Q 3922 3881 4101 3404 
Q 4281 2928 4281 2316 
Q 4281 1794 4159 1391 
Q 4038 988 3847 723 
Q 3656 459 3429 307 
Q 3203 156 2883 78 
Q 2563 0 2147 0 
L 494 0 
z
M 1100 541 
L 2078 541 
Q 2531 541 2789 625 
Q 3047 709 3200 863 
Q 3416 1078 3536 1442 
Q 3656 1806 3656 2325 
Q 3656 3044 3420 3430 
Q 3184 3816 2847 3947 
Q 2603 4041 2063 4041 
L 1100 4041 
L 1100 541 
z
" transform="scale(0.015625)"/>
       <path id="ArialMT-65" d="M 2694 1069 
L 3275 997 
Q 3138 488 2766 206 
Q 2394 -75 1816 -75 
Q 1088 -75 661 373 
Q 234 822 234 1631 
Q 234 2469 665 2931 
Q 1097 3394 1784 3394 
Q 2450 3394 2872 2941 
Q 3294 2488 3294 1666 
Q 3294 1616 3291 1516 
L 816 1516 
Q 847 969 1125 678 
Q 1403 388 1819 388 
Q 2128 388 2347 550 
Q 2566 713 2694 1069 
z
M 847 1978 
L 2700 1978 
Q 2663 2397 2488 2606 
Q 2219 2931 1791 2931 
Q 1403 2931 1139 2672 
Q 875 2413 847 1978 
z
" transform="scale(0.015625)"/>
       <path id="ArialMT-6e" d="M 422 0 
L 422 3319 
L 928 3319 
L 928 2847 
Q 1294 3394 1984 3394 
Q 2284 3394 2536 3286 
Q 2788 3178 2913 3003 
Q 3038 2828 3088 2588 
Q 3119 2431 3119 2041 
L 3119 0 
L 2556 0 
L 2556 2019 
Q 2556 2363 2490 2533 
Q 2425 2703 2258 2804 
Q 2091 2906 1866 2906 
Q 1506 2906 1245 2678 
Q 984 2450 984 1813 
L 984 0 
L 422 0 
z
" transform="scale(0.015625)"/>
       <path id="ArialMT-73" d="M 197 991 
L 753 1078 
Q 800 744 1014 566 
Q 1228 388 1613 388 
Q 2000 388 2187 545 
Q 2375 703 2375 916 
Q 2375 1106 2209 1216 
Q 2094 1291 1634 1406 
Q 1016 1563 777 1677 
Q 538 1791 414 1992 
Q 291 2194 291 2438 
Q 291 2659 392 2848 
Q 494 3038 669 3163 
Q 800 3259 1026 3326 
Q 1253 3394 1513 3394 
Q 1903 3394 2198 3281 
Q 2494 3169 2634 2976 
Q 2775 2784 2828 2463 
L 2278 2388 
Q 2241 2644 2061 2787 
Q 1881 2931 1553 2931 
Q 1166 2931 1000 2803 
Q 834 2675 834 2503 
Q 834 2394 903 2306 
Q 972 2216 1119 2156 
Q 1203 2125 1616 2013 
Q 2213 1853 2448 1751 
Q 2684 1650 2818 1456 
Q 2953 1263 2953 975 
Q 2953 694 2789 445 
Q 2625 197 2315 61 
Q 2006 -75 1616 -75 
Q 969 -75 630 194 
Q 291 463 197 991 
z
" transform="scale(0.015625)"/>
      </defs>
      <use xlink:href="#ArialMT-44"/>
      <use xlink:href="#ArialMT-65" x="72.216797"/>
      <use xlink:href="#ArialMT-6e" x="127.832031"/>
      <use xlink:href="#ArialMT-73" x="183.447266"/>
      <use xlink:href="#ArialMT-69" x="233.447266"/>
      <use xlink:href="#ArialMT-74" x="255.664062"/>
      <use xlink:href="#ArialMT-79" x="283.447266"/>
     </g>
    </g>
   </g>
   <g id="PolyCollection_1">
    <defs>
     <path id="ma93cfbdf9d" d="M 124.559943 -378.747759 
L 124.559943 -63.651563 
L 128.638518 -63.651563 
L 132.717093 -63.651563 
L 136.795667 -63.651563 
L 140.874242 -63.651563 
L 144.952817 -63.651563 
L 149.031391 -63.651563 
L 153.109966 -63.651563 
L 157.188541 -63.651563 
L 161.267115 -63.651563 
L 165.34569 -63.651563 
L 169.424265 -63.651563 
L 173.502839 -63.651563 
L 177.581414 -63.651563 
L 181.659989 -63.651563 
L 185.738564 -63.651563 
L 189.817138 -63.651563 
L 193.895713 -63.651563 
L 197.974288 -63.651563 
L 202.052862 -63.651563 
L 206.131437 -63.651563 
L 210.210012 -63.651563 
L 214.288586 -63.651563 
L 218.367161 -63.651563 
L 222.445736 -63.651563 
L 226.52431 -63.651563 
L 230.602885 -63.651563 
L 234.68146 -63.651563 
L 238.760035 -63.651563 
L 242.838609 -63.651563 
L 246.917184 -63.651563 
L 250.995759 -63.651563 
L 255.074333 -63.651563 
L 259.152908 -63.651563 
L 263.231483 -63.651563 
L 267.310057 -63.651563 
L 271.388632 -63.651563 
L 275.467207 -63.651563 
L 279.545781 -63.651563 
L 283.624356 -63.651563 
L 287.702931 -63.651563 
L 291.781506 -63.651563 
L 295.86008 -63.651563 
L 299.938655 -63.651563 
L 304.01723 -63.651563 
L 308.095804 -63.651563 
L 312.174379 -63.651563 
L 316.252954 -63.651563 
L 320.331528 -63.651563 
L 324.410103 -63.651563 
L 328.488678 -63.651563 
L 332.567252 -63.651563 
L 336.645827 -63.651563 
L 340.724402 -63.651563 
L 344.802977 -63.651563 
L 348.881551 -63.651563 
L 352.960126 -63.651563 
L 357.038701 -63.651563 
L 361.117275 -63.651563 
L 365.19585 -63.651563 
L 369.274425 -63.651563 
L 373.352999 -63.651563 
L 377.431574 -63.651563 
L 381.510149 -63.651563 
L 385.588723 -63.651563 
L 389.667298 -63.651563 
L 393.745873 -63.651563 
L 397.824448 -63.651563 
L 401.903022 -63.651563 
L 405.981597 -63.651563 
L 410.060172 -63.651563 
L 414.138746 -63.651563 
L 418.217321 -63.651563 
L 422.295896 -63.651563 
L 426.37447 -63.651563 
L 430.453045 -63.651563 
L 434.53162 -63.651563 
L 438.610194 -63.651563 
L 442.688769 -63.651563 
L 446.767344 -63.651563 
L 450.845919 -63.651563 
L 454.924493 -63.651563 
L 459.003068 -63.651563 
L 463.081643 -63.651563 
L 467.160217 -63.651563 
L 471.238792 -63.651563 
L 475.317367 -63.651563 
L 479.395941 -63.651563 
L 483.474516 -63.651563 
L 487.553091 -63.651563 
L 491.631665 -63.651563 
L 495.71024 -63.651563 
L 499.788815 -63.651563 
L 503.86739 -63.651563 
L 507.945964 -63.651563 
L 512.024539 -63.651563 
L 516.103114 -63.651563 
L 520.181688 -63.651563 
L 524.260263 -63.651563 
L 528.338838 -63.651563 
L 532.417412 -63.651563 
L 536.495987 -63.651563 
L 540.574562 -63.651563 
L 544.653136 -63.651563 
L 548.731711 -63.651563 
L 552.810286 -63.651563 
L 556.88886 -63.651563 
L 560.967435 -63.651563 
L 565.04601 -63.651563 
L 569.124585 -63.651563 
L 573.203159 -63.651563 
L 577.281734 -63.651563 
L 581.360309 -63.651563 
L 585.438883 -63.651563 
L 589.517458 -63.651563 
L 593.596033 -63.651563 
L 597.674607 -63.651563 
L 601.753182 -63.651563 
L 605.831757 -63.651563 
L 609.910331 -63.651563 
L 613.988906 -63.651563 
L 618.067481 -63.651563 
L 622.146056 -63.651563 
L 626.22463 -63.651563 
L 630.303205 -63.651563 
L 634.38178 -63.651563 
L 638.460354 -63.651563 
L 642.538929 -63.651563 
L 646.617504 -63.651563 
L 650.696078 -63.651563 
L 654.774653 -63.651563 
L 658.853228 -63.651563 
L 662.931802 -63.651563 
L 667.010377 -63.651563 
L 671.088952 -63.651563 
L 675.167527 -63.651563 
L 679.246101 -63.651563 
L 683.324676 -63.651563 
L 687.403251 -63.651563 
L 691.481825 -63.651563 
L 695.5604 -63.651563 
L 699.638975 -63.651563 
L 703.717549 -63.651563 
L 707.796124 -63.651563 
L 711.874699 -63.651563 
L 715.953273 -63.651563 
L 720.031848 -63.651563 
L 724.110423 -63.651563 
L 728.188998 -63.651563 
L 732.267572 -63.651563 
L 736.346147 -63.651563 
L 740.424722 -63.651563 
L 744.503296 -63.651563 
L 748.581871 -63.651563 
L 752.660446 -63.651563 
L 756.73902 -63.651563 
L 760.817595 -63.651563 
L 764.89617 -63.651563 
L 768.974744 -63.651563 
L 773.053319 -63.651563 
L 777.131894 -63.651563 
L 781.210469 -63.651563 
L 785.289043 -63.651563 
L 789.367618 -63.651563 
L 793.446193 -63.651563 
L 797.524767 -63.651563 
L 801.603342 -63.651563 
L 805.681917 -63.651563 
L 809.760491 -63.651563 
L 813.839066 -63.651563 
L 817.917641 -63.651563 
L 821.996215 -63.651563 
L 826.07479 -63.651563 
L 830.153365 -63.651563 
L 834.23194 -63.651563 
L 838.310514 -63.651563 
L 842.389089 -63.651563 
L 846.467664 -63.651563 
L 850.546238 -63.651563 
L 854.624813 -63.651563 
L 858.703388 -63.651563 
L 862.781962 -63.651563 
L 866.860537 -63.651563 
L 870.939112 -63.651563 
L 875.017686 -63.651563 
L 879.096261 -63.651563 
L 883.174836 -63.651563 
L 887.253411 -63.651563 
L 891.331985 -63.651563 
L 895.41056 -63.651563 
L 899.489135 -63.651563 
L 903.567709 -63.651563 
L 907.646284 -63.651563 
L 911.724859 -63.651563 
L 915.803433 -63.651563 
L 919.882008 -63.651563 
L 923.960583 -63.651563 
L 928.039157 -63.651563 
L 932.117732 -63.651563 
L 936.196307 -63.651563 
L 936.196307 -588.43749 
L 936.196307 -588.43749 
L 932.117732 -544.961988 
L 928.039157 -425.45495 
L 923.960583 -293.384505 
L 919.882008 -196.228706 
L 915.803433 -143.758888 
L 911.724859 -122.076383 
L 907.646284 -114.84966 
L 903.567709 -112.638713 
L 899.489135 -112.054626 
L 895.41056 -112.336694 
L 891.331985 -113.166501 
L 887.253411 -114.172703 
L 883.174836 -115.262771 
L 879.096261 -116.74207 
L 875.017686 -118.961921 
L 870.939112 -122.070675 
L 866.860537 -126.164211 
L 862.781962 -131.344603 
L 858.703388 -137.371932 
L 854.624813 -143.449583 
L 850.546238 -148.600525 
L 846.467664 -152.147008 
L 842.389089 -153.772223 
L 838.310514 -153.506254 
L 834.23194 -151.935161 
L 830.153365 -150.153238 
L 826.07479 -149.177975 
L 821.996215 -149.400753 
L 817.917641 -150.617869 
L 813.839066 -152.436821 
L 809.760491 -154.557757 
L 805.681917 -156.794498 
L 801.603342 -159.058512 
L 797.524767 -161.453449 
L 793.446193 -164.331254 
L 789.367618 -168.098469 
L 785.289043 -172.851477 
L 781.210469 -178.185584 
L 777.131894 -183.410377 
L 773.053319 -188.065204 
L 768.974744 -192.371626 
L 764.89617 -197.208722 
L 760.817595 -203.485302 
L 756.73902 -211.350546 
L 752.660446 -219.982792 
L 748.581871 -228.270398 
L 744.503296 -235.891514 
L 740.424722 -243.8302 
L 736.346147 -253.622836 
L 732.267572 -265.760383 
L 728.188998 -278.955979 
L 724.110423 -291.420231 
L 720.031848 -302.757852 
L 715.953273 -314.138253 
L 711.874699 -326.759797 
L 707.796124 -340.768174 
L 703.717549 -355.645416 
L 699.638975 -370.899311 
L 695.5604 -385.963104 
L 691.481825 -399.910866 
L 687.403251 -411.990072 
L 683.324676 -422.449066 
L 679.246101 -432.224318 
L 675.167527 -441.543202 
L 671.088952 -449.295328 
L 667.010377 -454.163045 
L 662.931802 -456.098504 
L 658.853228 -456.389636 
L 654.774653 -456.611381 
L 650.696078 -457.913852 
L 646.617504 -460.872752 
L 642.538929 -465.119492 
L 638.460354 -469.026129 
L 634.38178 -470.543287 
L 630.303205 -468.890882 
L 626.22463 -465.335016 
L 622.146056 -462.105554 
L 618.067481 -460.449851 
L 613.988906 -459.673966 
L 609.910331 -458.117158 
L 605.831757 -455.011169 
L 601.753182 -451.153916 
L 597.674607 -447.829285 
L 593.596033 -445.422462 
L 589.517458 -443.046996 
L 585.438883 -439.263369 
L 581.360309 -433.370989 
L 577.281734 -426.294009 
L 573.203159 -420.011309 
L 569.124585 -415.871137 
L 565.04601 -413.558311 
L 560.967435 -411.791912 
L 556.88886 -409.830935 
L 552.810286 -408.107811 
L 548.731711 -407.565727 
L 544.653136 -408.737802 
L 540.574562 -411.478681 
L 536.495987 -415.237995 
L 532.417412 -419.507811 
L 528.338838 -424.226687 
L 524.260263 -429.548986 
L 520.181688 -434.708809 
L 516.103114 -437.355995 
L 512.024539 -435.020769 
L 507.945964 -427.744717 
L 503.86739 -418.869633 
L 499.788815 -412.843796 
L 495.71024 -412.130619 
L 491.631665 -415.628254 
L 487.553091 -419.301961 
L 483.474516 -418.787364 
L 479.395941 -412.703105 
L 475.317367 -403.891859 
L 471.238792 -396.939742 
L 467.160217 -394.318784 
L 463.081643 -395.178797 
L 459.003068 -397.555666 
L 454.924493 -400.775598 
L 450.845919 -405.209082 
L 446.767344 -410.430134 
L 442.688769 -414.73396 
L 438.610194 -416.506583 
L 434.53162 -415.361618 
L 430.453045 -411.952476 
L 426.37447 -407.342442 
L 422.295896 -402.549073 
L 418.217321 -398.130097 
L 414.138746 -394.362417 
L 410.060172 -392.362351 
L 405.981597 -394.389131 
L 401.903022 -401.613701 
L 397.824448 -411.444321 
L 393.745873 -418.390558 
L 389.667298 -418.385186 
L 385.588723 -411.940189 
L 381.510149 -403.150256 
L 377.431574 -396.444039 
L 373.352999 -394.191761 
L 369.274425 -396.01043 
L 365.19585 -399.384948 
L 361.117275 -401.348027 
L 357.038701 -400.432317 
L 352.960126 -397.794029 
L 348.881551 -397.321302 
L 344.802977 -404.86843 
L 340.724402 -425.592847 
L 336.645827 -458.631494 
L 332.567252 -492.706579 
L 328.488678 -509.948476 
L 324.410103 -498.818955 
L 320.331528 -464.241103 
L 316.252954 -423.227203 
L 312.174379 -390.932284 
L 308.095804 -371.888339 
L 304.01723 -362.103942 
L 299.938655 -355.969942 
L 295.86008 -350.996292 
L 291.781506 -348.20278 
L 287.702931 -349.483449 
L 283.624356 -354.880312 
L 279.545781 -362.281849 
L 275.467207 -369.373631 
L 271.388632 -375.34082 
L 267.310057 -380.517538 
L 263.231483 -384.851433 
L 259.152908 -387.390188 
L 255.074333 -387.409105 
L 250.995759 -385.488365 
L 246.917184 -383.108876 
L 242.838609 -381.536786 
L 238.760035 -381.462601 
L 234.68146 -383.491801 
L 230.602885 -388.494117 
L 226.52431 -397.152165 
L 222.445736 -408.996082 
L 218.367161 -421.804601 
L 214.288586 -432.227995 
L 210.210012 -437.703762 
L 206.131437 -438.385666 
L 202.052862 -437.331607 
L 197.974288 -438.568933 
L 193.895713 -444.536049 
L 189.817138 -454.873128 
L 185.738564 -467.245487 
L 181.659989 -479.22157 
L 177.581414 -489.78119 
L 173.502839 -499.645911 
L 169.424265 -510.351817 
L 165.34569 -522.769865 
L 161.267115 -536.302423 
L 157.188541 -549.337512 
L 153.109966 -560.339905 
L 149.031391 -568.718898 
L 144.952817 -574.769436 
L 140.874242 -577.495489 
L 136.795667 -570.441196 
L 132.717093 -540.470481 
L 128.638518 -475.696795 
L 124.559943 -378.747759 
z
" style="stroke: #1f77b4; stroke-width: 4"/>
    </defs>
    <g clip-path="url(#pf8226159f1)">
     <use xlink:href="#ma93cfbdf9d" x="0" y="684.290625" style="fill: #1f77b4; fill-opacity: 0.25; stroke: #1f77b4; stroke-width: 4"/>
    </g>
   </g>
   <g id="patch_3">
    <path d="M 83.978125 620.639062 
L 83.978125 66.239062 
" style="fill: none"/>
   </g>
   <g id="patch_4">
    <path d="M 976.778125 620.639062 
L 976.778125 66.239062 
" style="fill: none"/>
   </g>
   <g id="patch_5">
    <path d="M 83.978125 620.639062 
L 976.778125 620.639062 
" style="fill: none"/>
   </g>
   <g id="patch_6">
    <path d="M 83.978125 66.239062 
L 976.778125 66.239062 
" style="fill: none"/>
   </g>
   <g id="text_17">
    <!-- Structural Similarity Distribution -->
    <g style="fill: #262626" transform="translate(321.997656 36.239062)scale(0.3 -0.3)">
     <defs>
      <path id="ArialMT-62" d="M 941 0 
L 419 0 
L 419 4581 
L 981 4581 
L 981 2947 
Q 1338 3394 1891 3394 
Q 2197 3394 2470 3270 
Q 2744 3147 2920 2923 
Q 3097 2700 3197 2384 
Q 3297 2069 3297 1709 
Q 3297 856 2875 390 
Q 2453 -75 1863 -75 
Q 1275 -75 941 416 
L 941 0 
z
M 934 1684 
Q 934 1088 1097 822 
Q 1363 388 1816 388 
Q 2184 388 2453 708 
Q 2722 1028 2722 1663 
Q 2722 2313 2464 2622 
Q 2206 2931 1841 2931 
Q 1472 2931 1203 2611 
Q 934 2291 934 1684 
z
" transform="scale(0.015625)"/>
      <path id="ArialMT-6f" d="M 213 1659 
Q 213 2581 725 3025 
Q 1153 3394 1769 3394 
Q 2453 3394 2887 2945 
Q 3322 2497 3322 1706 
Q 3322 1066 3130 698 
Q 2938 331 2570 128 
Q 2203 -75 1769 -75 
Q 1072 -75 642 372 
Q 213 819 213 1659 
z
M 791 1659 
Q 791 1022 1069 705 
Q 1347 388 1769 388 
Q 2188 388 2466 706 
Q 2744 1025 2744 1678 
Q 2744 2294 2464 2611 
Q 2184 2928 1769 2928 
Q 1347 2928 1069 2612 
Q 791 2297 791 1659 
z
" transform="scale(0.015625)"/>
     </defs>
     <use xlink:href="#ArialMT-53"/>
     <use xlink:href="#ArialMT-74" x="66.699219"/>
     <use xlink:href="#ArialMT-72" x="94.482422"/>
     <use xlink:href="#ArialMT-75" x="127.783203"/>
     <use xlink:href="#ArialMT-63" x="183.398438"/>
     <use xlink:href="#ArialMT-74" x="233.398438"/>
     <use xlink:href="#ArialMT-75" x="261.181641"/>
     <use xlink:href="#ArialMT-72" x="316.796875"/>
     <use xlink:href="#ArialMT-61" x="350.097656"/>
     <use xlink:href="#ArialMT-6c" x="405.712891"/>
     <use xlink:href="#ArialMT-20" x="427.929688"/>
     <use xlink:href="#ArialMT-53" x="455.712891"/>
     <use xlink:href="#ArialMT-69" x="522.412109"/>
     <use xlink:href="#ArialMT-6d" x="544.628906"/>
     <use xlink:href="#ArialMT-69" x="627.929688"/>
     <use xlink:href="#ArialMT-6c" x="650.146484"/>
     <use xlink:href="#ArialMT-61" x="672.363281"/>
     <use xlink:href="#ArialMT-72" x="727.978516"/>
     <use xlink:href="#ArialMT-69" x="761.279297"/>
     <use xlink:href="#ArialMT-74" x="783.496094"/>
     <use xlink:href="#ArialMT-79" x="811.279297"/>
     <use xlink:href="#ArialMT-20" x="861.279297"/>
     <use xlink:href="#ArialMT-44" x="889.0625"/>
     <use xlink:href="#ArialMT-69" x="961.279297"/>
     <use xlink:href="#ArialMT-73" x="983.496094"/>
     <use xlink:href="#ArialMT-74" x="1033.496094"/>
     <use xlink:href="#ArialMT-72" x="1061.279297"/>
     <use xlink:href="#ArialMT-69" x="1094.580078"/>
     <use xlink:href="#ArialMT-62" x="1116.796875"/>
     <use xlink:href="#ArialMT-75" x="1172.412109"/>
     <use xlink:href="#ArialMT-74" x="1228.027344"/>
     <use xlink:href="#ArialMT-69" x="1255.810547"/>
     <use xlink:href="#ArialMT-6f" x="1278.027344"/>
     <use xlink:href="#ArialMT-6e" x="1333.642578"/>
    </g>
   </g>
  </g>
 </g>
 <defs>
  <clipPath id="pf8226159f1">
   <rect x="83.978125" y="66.239062" width="892.8" height="554.4"/>
  </clipPath>
 </defs>
</svg>
